<?xml version="1.0" standalone="no"?><!DOCTYPE svg PUBLIC "-//W3C//DTD SVG 1.1//EN" "http://www.w3.org/Graphics/SVG/1.1/DTD/svg11.dtd"><svg t="1741572008978" class="icon" viewBox="0 0 1024 1024" version="1.1" xmlns="http://www.w3.org/2000/svg" p-id="4946" xmlns:xlink="http://www.w3.org/1999/xlink" width="256" height="256"><path d="M176.78336 927.5392h670.45376v61.44H176.78336zM911.5648 480.91136l-177.50016-173.03552L775.9872 63.63136a30.72 30.72 0 0 0-44.58496-32.39936L512.02048 146.61632 292.61824 31.232a30.74048 30.74048 0 0 0-44.58496 32.39936l41.90208 244.24448-177.50016 173.03552a30.69952 30.69952 0 0 0 17.03936 52.40832l245.28896 35.57376 109.09696 221.06112v129.37216h61.44v-139.75552l103.936-210.67776 245.28896-35.57376a30.72 30.72 0 0 0 17.03936-52.40832z m-287.1296 29.51168a30.76096 30.76096 0 0 0-23.1424 16.7936l-89.27232 180.96128-89.31328-180.96128a30.76096 30.76096 0 0 0-23.1424-16.7936l-199.65952-28.95872 144.4864-140.86144a30.72 30.72 0 0 0 8.82688-27.19744l-34.11968-198.79936 178.60608 93.92128c8.97024 4.68992 19.64032 4.68992 28.59008 0l178.5856-93.92128-34.11968 198.79936c-1.69984 9.95328 1.59744 20.13184 8.82688 27.19744l144.4864 140.86144-199.63904 28.95872z" fill="#00A0E9" p-id="4947"></path></svg>